<svg width="325" height="84" viewBox="0 0 325 84" fill="none" xmlns="http://www.w3.org/2000/svg">
<path d="M34.4062 35.0312V42.3438H10.6562V35.0312H34.4062ZM13.4375 16.5V62H4.0625V16.5H13.4375ZM41.0938 16.5V62H31.75V16.5H41.0938ZM66.9375 54.375V39.3125C66.9375 38.2292 66.7604 37.3021 66.4062 36.5312C66.0521 35.7396 65.5 35.125 64.75 34.6875C64.0208 34.25 63.0729 34.0312 61.9062 34.0312C60.9062 34.0312 60.0417 34.2083 59.3125 34.5625C58.5833 34.8958 58.0208 35.3854 57.625 36.0312C57.2292 36.6562 57.0312 37.3958 57.0312 38.25H48.0312C48.0312 36.8125 48.3646 35.4479 49.0312 34.1562C49.6979 32.8646 50.6667 31.7292 51.9375 30.75C53.2083 29.75 54.7188 28.9688 56.4688 28.4062C58.2396 27.8438 60.2188 27.5625 62.4062 27.5625C65.0312 27.5625 67.3646 28 69.4062 28.875C71.4479 29.75 73.0521 31.0625 74.2188 32.8125C75.4062 34.5625 76 36.75 76 39.375V53.8438C76 55.6979 76.1146 57.2188 76.3438 58.4062C76.5729 59.5729 76.9062 60.5938 77.3438 61.4688V62H68.25C67.8125 61.0833 67.4792 59.9375 67.25 58.5625C67.0417 57.1667 66.9375 55.7708 66.9375 54.375ZM68.125 41.4062L68.1875 46.5H63.1562C61.9688 46.5 60.9375 46.6354 60.0625 46.9062C59.1875 47.1771 58.4688 47.5625 57.9062 48.0625C57.3438 48.5417 56.9271 49.1042 56.6562 49.75C56.4062 50.3958 56.2812 51.1042 56.2812 51.875C56.2812 52.6458 56.4583 53.3438 56.8125 53.9688C57.1667 54.5729 57.6771 55.0521 58.3438 55.4062C59.0104 55.7396 59.7917 55.9062 60.6875 55.9062C62.0417 55.9062 63.2188 55.6354 64.2188 55.0938C65.2188 54.5521 65.9896 53.8854 66.5312 53.0938C67.0938 52.3021 67.3854 51.5521 67.4062 50.8438L69.7812 54.6562C69.4479 55.5104 68.9896 56.3958 68.4062 57.3125C67.8438 58.2292 67.125 59.0938 66.25 59.9062C65.375 60.6979 64.3229 61.3542 63.0938 61.875C61.8646 62.375 60.4062 62.625 58.7188 62.625C56.5729 62.625 54.625 62.1979 52.875 61.3438C51.1458 60.4688 49.7708 59.2708 48.75 57.75C47.75 56.2083 47.25 54.4583 47.25 52.5C47.25 50.7292 47.5833 49.1562 48.25 47.7812C48.9167 46.4062 49.8958 45.25 51.1875 44.3125C52.5 43.3542 54.1354 42.6354 56.0938 42.1562C58.0521 41.6562 60.3229 41.4062 62.9062 41.4062H68.125ZM91.9375 35.1875V62H82.9062V28.1875H91.375L91.9375 35.1875ZM90.6875 43.9062H88.1875C88.1875 41.5521 88.4688 39.3854 89.0312 37.4062C89.6146 35.4062 90.4583 33.6771 91.5625 32.2188C92.6875 30.7396 94.0729 29.5938 95.7188 28.7812C97.3646 27.9688 99.2708 27.5625 101.438 27.5625C102.938 27.5625 104.312 27.7917 105.562 28.25C106.812 28.6875 107.885 29.3854 108.781 30.3438C109.698 31.2812 110.406 32.5104 110.906 34.0312C111.406 35.5312 111.656 37.3333 111.656 39.4375V62H102.656V40.4375C102.656 38.8958 102.448 37.7083 102.031 36.875C101.615 36.0417 101.021 35.4583 100.25 35.125C99.5 34.7917 98.5938 34.625 97.5312 34.625C96.3646 34.625 95.3438 34.8646 94.4688 35.3438C93.6146 35.8229 92.9062 36.4896 92.3438 37.3438C91.7812 38.1771 91.3646 39.1562 91.0938 40.2812C90.8229 41.4062 90.6875 42.6146 90.6875 43.9062ZM110.812 42.875L107.594 43.2812C107.594 41.0729 107.865 39.0208 108.406 37.125C108.969 35.2292 109.792 33.5625 110.875 32.125C111.979 30.6875 113.344 29.5729 114.969 28.7812C116.594 27.9688 118.469 27.5625 120.594 27.5625C122.219 27.5625 123.698 27.8021 125.031 28.2812C126.365 28.7396 127.5 29.4792 128.438 30.5C129.396 31.5 130.125 32.8125 130.625 34.4375C131.146 36.0625 131.406 38.0521 131.406 40.4062V62H122.375V40.4062C122.375 38.8438 122.167 37.6562 121.75 36.8438C121.354 36.0104 120.771 35.4375 120 35.125C119.25 34.7917 118.354 34.625 117.312 34.625C116.229 34.625 115.281 34.8438 114.469 35.2812C113.656 35.6979 112.979 36.2812 112.438 37.0312C111.896 37.7812 111.49 38.6562 111.219 39.6562C110.948 40.6354 110.812 41.7083 110.812 42.875ZM138.375 14H147.375V54.25L146.469 62H138.375V14ZM168.781 44.75V45.4062C168.781 47.9271 168.51 50.2396 167.969 52.3438C167.448 54.4479 166.635 56.2708 165.531 57.8125C164.427 59.3333 163.052 60.5208 161.406 61.375C159.781 62.2083 157.865 62.625 155.656 62.625C153.594 62.625 151.802 62.2083 150.281 61.375C148.781 60.5417 147.521 59.3646 146.5 57.8438C145.479 56.3229 144.656 54.5417 144.031 52.5C143.406 50.4583 142.938 48.2292 142.625 45.8125V44.375C142.938 41.9583 143.406 39.7292 144.031 37.6875C144.656 35.6458 145.479 33.8646 146.5 32.3438C147.521 30.8229 148.781 29.6458 150.281 28.8125C151.781 27.9792 153.552 27.5625 155.594 27.5625C157.823 27.5625 159.76 27.9896 161.406 28.8438C163.073 29.6771 164.448 30.8646 165.531 32.4062C166.635 33.9271 167.448 35.7396 167.969 37.8438C168.51 39.9271 168.781 42.2292 168.781 44.75ZM159.781 45.4062V44.75C159.781 43.375 159.677 42.0833 159.469 40.875C159.281 39.6458 158.948 38.5729 158.469 37.6562C157.99 36.7188 157.333 35.9792 156.5 35.4375C155.688 34.8958 154.635 34.625 153.344 34.625C152.115 34.625 151.073 34.8333 150.219 35.25C149.365 35.6667 148.656 36.25 148.094 37C147.552 37.75 147.146 38.6458 146.875 39.6875C146.604 40.7083 146.438 41.8333 146.375 43.0625V47.1562C146.438 48.8021 146.708 50.2604 147.188 51.5312C147.688 52.7812 148.438 53.7708 149.438 54.5C150.458 55.2083 151.781 55.5625 153.406 55.5625C154.677 55.5625 155.729 55.3125 156.562 54.8125C157.396 54.3125 158.042 53.6042 158.5 52.6875C158.979 51.7708 159.312 50.6979 159.5 49.4688C159.688 48.2188 159.781 46.8646 159.781 45.4062ZM194.375 53.9062V28.1875H203.375V62H194.906L194.375 53.9062ZM195.375 46.9688L198.031 46.9062C198.031 49.1562 197.771 51.25 197.25 53.1875C196.729 55.1042 195.948 56.7708 194.906 58.1875C193.865 59.5833 192.552 60.6771 190.969 61.4688C189.385 62.2396 187.521 62.625 185.375 62.625C183.729 62.625 182.208 62.3958 180.812 61.9375C179.438 61.4583 178.25 60.7188 177.25 59.7188C176.271 58.6979 175.5 57.3958 174.938 55.8125C174.396 54.2083 174.125 52.2812 174.125 50.0312V28.1875H183.125V50.0938C183.125 51.0938 183.24 51.9375 183.469 52.625C183.719 53.3125 184.062 53.875 184.5 54.3125C184.938 54.75 185.448 55.0625 186.031 55.25C186.635 55.4375 187.302 55.5312 188.031 55.5312C189.885 55.5312 191.344 55.1562 192.406 54.4062C193.49 53.6562 194.25 52.6354 194.688 51.3438C195.146 50.0312 195.375 48.5729 195.375 46.9688ZM219.25 35.5625V62H210.25V28.1875H218.719L219.25 35.5625ZM229.438 27.9688L229.281 36.3125C228.844 36.25 228.312 36.1979 227.688 36.1562C227.083 36.0938 226.531 36.0625 226.031 36.0625C224.76 36.0625 223.656 36.2292 222.719 36.5625C221.802 36.875 221.031 37.3438 220.406 37.9688C219.802 38.5938 219.344 39.3542 219.031 40.25C218.74 41.1458 218.573 42.1667 218.531 43.3125L216.719 42.75C216.719 40.5625 216.938 38.5521 217.375 36.7188C217.812 34.8646 218.448 33.25 219.281 31.875C220.135 30.5 221.177 29.4375 222.406 28.6875C223.635 27.9375 225.042 27.5625 226.625 27.5625C227.125 27.5625 227.635 27.6042 228.156 27.6875C228.677 27.75 229.104 27.8438 229.438 27.9688ZM254.469 28.1875H262.625V60.875C262.625 63.9583 261.938 66.5729 260.562 68.7188C259.208 70.8854 257.312 72.5208 254.875 73.625C252.438 74.75 249.604 75.3125 246.375 75.3125C244.958 75.3125 243.458 75.125 241.875 74.75C240.312 74.375 238.812 73.7917 237.375 73C235.958 72.2083 234.771 71.2083 233.812 70L237.781 64.6875C238.823 65.8958 240.031 66.8333 241.406 67.5C242.781 68.1875 244.302 68.5312 245.969 68.5312C247.594 68.5312 248.969 68.2292 250.094 67.625C251.219 67.0417 252.083 66.1771 252.688 65.0312C253.292 63.9062 253.594 62.5417 253.594 60.9375V36L254.469 28.1875ZM231.719 45.5V44.8438C231.719 42.2604 232.031 39.9167 232.656 37.8125C233.302 35.6875 234.208 33.8646 235.375 32.3438C236.562 30.8229 238 29.6458 239.688 28.8125C241.375 27.9792 243.281 27.5625 245.406 27.5625C247.656 27.5625 249.542 27.9792 251.062 28.8125C252.583 29.6458 253.833 30.8333 254.812 32.375C255.792 33.8958 256.552 35.6979 257.094 37.7812C257.656 39.8438 258.094 42.1042 258.406 44.5625V46C258.094 48.3542 257.625 50.5417 257 52.5625C256.375 54.5833 255.552 56.3542 254.531 57.875C253.51 59.375 252.24 60.5417 250.719 61.375C249.219 62.2083 247.427 62.625 245.344 62.625C243.26 62.625 241.375 62.1979 239.688 61.3438C238.021 60.4896 236.594 59.2917 235.406 57.75C234.219 56.2083 233.302 54.3958 232.656 52.3125C232.031 50.2292 231.719 47.9583 231.719 45.5ZM240.719 44.8438V45.5C240.719 46.8958 240.854 48.1979 241.125 49.4062C241.396 50.6146 241.812 51.6875 242.375 52.625C242.958 53.5417 243.677 54.2604 244.531 54.7812C245.406 55.2812 246.438 55.5312 247.625 55.5312C249.271 55.5312 250.615 55.1875 251.656 54.5C252.698 53.7917 253.479 52.8229 254 51.5938C254.521 50.3646 254.823 48.9479 254.906 47.3438V43.25C254.865 41.9375 254.688 40.7604 254.375 39.7188C254.062 38.6562 253.625 37.75 253.062 37C252.5 36.25 251.771 35.6667 250.875 35.25C249.979 34.8333 248.917 34.625 247.688 34.625C246.5 34.625 245.469 34.8958 244.594 35.4375C243.74 35.9583 243.021 36.6771 242.438 37.5938C241.875 38.5104 241.448 39.5938 241.156 40.8438C240.865 42.0729 240.719 43.4062 240.719 44.8438ZM285.188 62.625C282.562 62.625 280.208 62.2083 278.125 61.375C276.042 60.5208 274.271 59.3438 272.812 57.8438C271.375 56.3438 270.271 54.6042 269.5 52.625C268.729 50.625 268.344 48.5 268.344 46.25V45C268.344 42.4375 268.708 40.0938 269.438 37.9688C270.167 35.8438 271.208 34 272.562 32.4375C273.938 30.875 275.604 29.6771 277.562 28.8438C279.521 27.9896 281.729 27.5625 284.188 27.5625C286.583 27.5625 288.708 27.9583 290.562 28.75C292.417 29.5417 293.969 30.6667 295.219 32.125C296.49 33.5833 297.448 35.3333 298.094 37.375C298.74 39.3958 299.062 41.6458 299.062 44.125V47.875H272.188V41.875H290.219V41.1875C290.219 39.9375 289.99 38.8229 289.531 37.8438C289.094 36.8438 288.427 36.0521 287.531 35.4688C286.635 34.8854 285.49 34.5938 284.094 34.5938C282.906 34.5938 281.885 34.8542 281.031 35.375C280.177 35.8958 279.479 36.625 278.938 37.5625C278.417 38.5 278.021 39.6042 277.75 40.875C277.5 42.125 277.375 43.5 277.375 45V46.25C277.375 47.6042 277.562 48.8542 277.938 50C278.333 51.1458 278.885 52.1354 279.594 52.9688C280.323 53.8021 281.198 54.4479 282.219 54.9062C283.26 55.3646 284.438 55.5938 285.75 55.5938C287.375 55.5938 288.885 55.2812 290.281 54.6562C291.698 54.0104 292.917 53.0417 293.938 51.75L298.312 56.5C297.604 57.5208 296.635 58.5 295.406 59.4375C294.198 60.375 292.74 61.1458 291.031 61.75C289.323 62.3333 287.375 62.625 285.188 62.625ZM313.188 35.5625V62H304.188V28.1875H312.656L313.188 35.5625ZM323.375 27.9688L323.219 36.3125C322.781 36.25 322.25 36.1979 321.625 36.1562C321.021 36.0938 320.469 36.0625 319.969 36.0625C318.698 36.0625 317.594 36.2292 316.656 36.5625C315.74 36.875 314.969 37.3438 314.344 37.9688C313.74 38.5938 313.281 39.3542 312.969 40.25C312.677 41.1458 312.51 42.1667 312.469 43.3125L310.656 42.75C310.656 40.5625 310.875 38.5521 311.312 36.7188C311.75 34.8646 312.385 33.25 313.219 31.875C314.073 30.5 315.115 29.4375 316.344 28.6875C317.573 27.9375 318.979 27.5625 320.562 27.5625C321.062 27.5625 321.573 27.6042 322.094 27.6875C322.615 27.75 323.042 27.8438 323.375 27.9688Z" fill="#707070"/>
</svg>
